<svg width="62" height="42" version="1.1" xmlns="http://www.w3.org/2000/svg" desc="Created with imagetracer.js version 1.2.6" ><path fill="rgb(194,163,157)" stroke="rgb(194,163,157)" stroke-width="1" opacity="1" d="M 6.5 2 L 4.5 5 L 6.5 2 Z " /><path fill="rgb(194,163,157)" stroke="rgb(194,163,157)" stroke-width="1" opacity="1" d="M 55.5 2 L 59 6.5 L 58 6.5 L 55.5 2 Z " /><path fill="rgb(194,163,157)" stroke="rgb(194,163,157)" stroke-width="1" opacity="1" d="M 29.5 5 L 33 6.5 L 32.5 8 L 29.5 5 Z " /><path fill="rgb(194,163,157)" stroke="rgb(194,163,157)" stroke-width="1" opacity="1" d="M 37.5 8 L 38 10 L 36 9.5 L 37.5 8 Z " /><path fill="rgb(194,163,157)" stroke="rgb(194,163,157)" stroke-width="1" opacity="1" d="M 3.5 9 L 4 31.5 L 3 31.5 L 3.5 9 Z " /><path fill="rgb(194,163,157)" stroke="rgb(194,163,157)" stroke-width="1" opacity="1" d="M 27.5 16 L 28.5 18 Q 25.7 18.7 27.5 16 Z " /><path fill="rgb(194,163,157)" stroke="rgb(194,163,157)" stroke-width="1" opacity="1" d="M 35.5 17 L 36.5 19 L 35.5 17 Z " /><path fill="rgb(194,163,157)" stroke="rgb(194,163,157)" stroke-width="1" opacity="1" d="M 34.5 20 L 35.5 22 L 34.5 20 Z " /><path fill="rgb(194,163,157)" stroke="rgb(194,163,157)" stroke-width="1" opacity="1" d="M 27.5 22 L 30 22.5 L 27.5 23 L 27.5 22 Z " /><path fill="rgb(194,163,157)" stroke="rgb(194,163,157)" stroke-width="1" opacity="1" d="M 15.5 27 L 17 30.5 L 14.5 31 L 15 29.5 L 15.5 27 Z " /><path fill="rgb(194,163,157)" stroke="rgb(194,163,157)" stroke-width="1" opacity="1" d="M 22 27 Q 25.8 25.5 25 28.5 L 24.5 31 Q 22.3 31.8 23 29.5 L 22 27 Z " /><path fill="rgb(194,163,157)" stroke="rgb(194,163,157)" stroke-width="1" opacity="1" d="M 27 27 L 29 27.5 L 28 29.5 L 28.5 31 L 26 30.5 L 27 27 Z " /><path fill="rgb(194,163,157)" stroke="rgb(194,163,157)" stroke-width="1" opacity="1" d="M 31 27 L 35 28.5 L 32.5 29 Q 29.9 29.7 31 27 Z " /><path fill="rgb(194,163,157)" stroke="rgb(194,163,157)" stroke-width="1" opacity="1" d="M 41 27 L 43 27.5 L 42.5 30 L 41 27 Z " /><path fill="rgb(194,163,157)" stroke="rgb(194,163,157)" stroke-width="1" opacity="1" d="M 52.5 27 L 53 28.5 L 52.5 30 L 54 30.5 L 52.5 31 L 50 30.5 L 52.5 27 Z " /><path fill="rgb(194,163,157)" stroke="rgb(194,163,157)" stroke-width="1" opacity="1" d="M 8.5 28 L 11 28.5 L 10.5 30 L 13 30.5 L 10.5 31 L 8 30.5 L 8.5 28 Z " /><path fill="rgb(194,163,157)" stroke="rgb(194,163,157)" stroke-width="1" opacity="1" d="M 44.5 28 L 46 30.5 L 44 29.5 L 44.5 28 Z " /><path fill="rgb(194,163,157)" stroke="rgb(194,163,157)" stroke-width="1" opacity="1" d="M 58.5 34 L 59 35.5 L 54.5 39 L 54.5 38 L 58 35.5 L 58.5 34 Z " /><path fill="rgb(194,163,157)" stroke="rgb(194,163,157)" stroke-width="1" opacity="1" d="M 4.5 36 L 5.5 38 L 4.5 36 Z " /><path fill="rgb(2,36,96)" stroke="rgb(2,36,96)" stroke-width="1" opacity="1" d="M 10.5 4 L 28 4.5 L 10.5 5 L 10.5 4 Z " /><path fill="rgb(2,36,96)" stroke="rgb(2,36,96)" stroke-width="1" opacity="1" d="M 32.5 4 L 52 4.5 L 32.5 5 L 32.5 4 Z " /><path fill="rgb(2,36,96)" stroke="rgb(2,36,96)" stroke-width="1" opacity="1" d="M 8.5 5 L 7.5 7 L 8.5 5 Z " /><path fill="rgb(2,36,96)" stroke="rgb(2,36,96)" stroke-width="1" opacity="1" d="M 24.5 6 L 26 6.5 L 23 8.5 L 21.5 12 L 21 10.5 L 24.5 6 Z " /><path fill="rgb(2,36,96)" stroke="rgb(2,36,96)" stroke-width="1" opacity="1" d="M 36.5 6 Q 42.1 7.9 41 16.5 L 40 16.5 L 40 11.5 L 36.5 6 Z " /><path fill="rgb(2,36,96)" stroke="rgb(2,36,96)" stroke-width="1" opacity="1" d="M 6.5 8 L 7 22.5 L 6 22.5 L 6.5 8 Z " /><path fill="rgb(2,36,96)" stroke="rgb(2,36,96)" stroke-width="1" opacity="1" d="M 26.5 9 L 25.5 11 L 26.5 9 Z " /><path fill="rgb(2,36,96)" stroke="rgb(2,36,96)" stroke-width="1" opacity="1" d="M 35.5 9 L 37 11.5 L 35 10.5 L 35.5 9 Z " /><path fill="rgb(2,36,96)" stroke="rgb(2,36,96)" stroke-width="1" opacity="1" d="M 30.5 12 L 32 12.5 L 30 13 L 29.5 15 L 29 13.5 L 30.5 12 Z " /><path fill="rgb(2,36,96)" stroke="rgb(2,36,96)" stroke-width="1" opacity="1" d="M 20.5 13 Q 20.8 19.2 24.5 22 Q 27.2 24.8 33.5 24 L 39 19.5 L 39.5 18 L 40 19.5 L 35 23.5 L 54 24.5 L 8.5 25 L 8.5 24 L 26 23.5 L 22 20.5 Q 19 17.8 20.5 13 Z " /><path fill="rgb(2,36,96)" stroke="rgb(2,36,96)" stroke-width="1" opacity="1" d="M 32.5 14 L 34 16.5 L 32 15.5 L 32.5 14 Z " /><path fill="rgb(2,36,96)" stroke="rgb(2,36,96)" stroke-width="1" opacity="1" d="M 36.5 17 L 34.5 20 L 36.5 17 Z " /><path fill="rgb(2,36,96)" stroke="rgb(2,36,96)" stroke-width="1" opacity="1" d="M 25.5 18 L 26.5 20 L 25.5 18 Z " /><path fill="rgb(67,64,63)" stroke="rgb(67,64,63)" stroke-width="1" opacity="1" d="M 8.5 2 L 54 2.5 L 8.5 3 L 8.5 2 Z " /><path fill="rgb(67,64,63)" stroke="rgb(67,64,63)" stroke-width="1" opacity="1" d="M 34.5 27 L 37 28.5 L 35.5 28 L 34.5 27 Z " /><path fill="rgb(67,64,63)" stroke="rgb(67,64,63)" stroke-width="1" opacity="1" d="M 53.5 29 L 54.5 31 L 53.5 29 Z " /><path fill="rgb(67,64,63)" stroke="rgb(67,64,63)" stroke-width="1" opacity="1" d="M 9 33 Q 13.1 31.7 12 35 Q 7.9 36.3 9 33 Z " /><path fill="rgb(67,64,63)" stroke="rgb(67,64,63)" stroke-width="1" opacity="1" d="M 14 33 L 20 33.5 Q 18.6 36.3 14 35 L 14 33 Z " /><path fill="rgb(67,64,63)" stroke="rgb(67,64,63)" stroke-width="1" opacity="1" d="M 24 33 L 28 33.5 L 24 35 L 24 33 Z " /><path fill="rgb(67,64,63)" stroke="rgb(67,64,63)" stroke-width="1" opacity="1" d="M 33 33 Q 36 32 35 35 Q 32 36 33 33 Z " /><path fill="rgb(67,64,63)" stroke="rgb(67,64,63)" stroke-width="1" opacity="1" d="M 38.5 33 L 43 33.5 L 39.5 35 L 38.5 33 Z " /><path fill="rgb(67,64,63)" stroke="rgb(67,64,63)" stroke-width="1" opacity="1" d="M 48 33 Q 52.1 31.7 51 35 Q 46.9 36.3 48 33 Z " /><path fill="rgb(1,53,122)" stroke="rgb(1,53,122)" stroke-width="1" opacity="1" d="M 9.5 5 L 26 5.5 L 23 7.5 L 23.5 9 L 21 8.5 L 22.5 6 L 10.5 6 L 8 8.5 L 8 23 L 22.5 23 L 23.5 20 L 24.5 23 L 26 23.5 L 7 24 L 7 7.5 L 9.5 5 Z " /><path fill="rgb(1,53,122)" stroke="rgb(1,53,122)" stroke-width="1" opacity="1" d="M 35 5 L 52.5 5 L 55 7.5 L 55 22.5 L 56 23.5 L 35.5 24 L 35.5 23 L 54 23 L 54 7.5 L 52.5 6 L 39.5 6 L 37.5 6 L 35.5 7 L 35 5 Z " /><path fill="rgb(1,53,122)" stroke="rgb(1,53,122)" stroke-width="1" opacity="1" d="M 36.5 12 L 37.5 14 L 36.5 12 Z " /><path fill="rgb(1,53,122)" stroke="rgb(1,53,122)" stroke-width="1" opacity="1" d="M 24.5 13 L 25 15.5 L 24 15.5 L 24.5 13 Z " /><path fill="rgb(1,53,122)" stroke="rgb(1,53,122)" stroke-width="1" opacity="1" d="M 28.5 15 L 31 15.5 L 28.5 16 L 28.5 15 Z " /><path fill="rgb(1,53,122)" stroke="rgb(1,53,122)" stroke-width="1" opacity="1" d="M 22.5 18 L 21.5 20 L 22.5 18 Z " /><path fill="rgb(1,53,122)" stroke="rgb(1,53,122)" stroke-width="1" opacity="1" d="M 38.5 19 L 39.5 21 L 38.5 19 Z " /><path fill="rgb(32,38,47)" stroke="rgb(32,38,47)" stroke-width="1" opacity="1" d="M 31 33 L 33 33.5 L 31 34.5 L 31 33 Z " /><path fill="rgb(0,52,119)" stroke="rgb(0,52,119)" stroke-width="1" opacity="1" d="M 10.5 6 L 23 6.5 L 21 10.5 L 22 12.5 L 20 13 Q 19.3 19.1 23 22.5 L 8 23 L 8 8.5 L 10.5 6 Z " /><path fill="rgb(0,52,119)" stroke="rgb(0,52,119)" stroke-width="1" opacity="1" d="M 37.5 6 L 39.5 6 L 52.5 6 L 53.5 7 L 55 6.5 L 54 7.5 L 54 23 L 37 22.5 L 40 21 L 39 17.5 L 41 17 Q 42.1 11.5 39.5 9 L 38 9.5 L 39 8.5 L 37.5 6 Z " /><path fill="rgb(0,52,119)" stroke="rgb(0,52,119)" stroke-width="1" opacity="1" d="M 55.5 8 L 56 22.5 L 55 22.5 L 55.5 8 Z " /><path fill="rgb(0,52,119)" stroke="rgb(0,52,119)" stroke-width="1" opacity="1" d="M 6.5 23 L 7.5 25 L 6.5 23 Z " /><path fill="rgb(109,121,133)" stroke="rgb(109,121,133)" stroke-width="1" opacity="1" d="M 26.5 6 L 27.5 10 L 25 9.5 L 25.5 8 L 24 7.5 L 26.5 6 Z " /><path fill="rgb(109,121,133)" stroke="rgb(109,121,133)" stroke-width="1" opacity="1" d="M 29.5 7 L 32 8.5 L 29 9 L 29.5 7 Z " /><path fill="rgb(109,121,133)" stroke="rgb(109,121,133)" stroke-width="1" opacity="1" d="M 58.5 7 L 59 33.5 L 58 33.5 L 58.5 7 Z " /><path fill="rgb(109,121,133)" stroke="rgb(109,121,133)" stroke-width="1" opacity="1" d="M 37.5 12 L 36.5 14 L 37.5 12 Z " /><path fill="rgb(109,121,133)" stroke="rgb(109,121,133)" stroke-width="1" opacity="1" d="M 21.5 13 L 22 15.5 L 21 15.5 L 21.5 13 Z " /><path fill="rgb(109,121,133)" stroke="rgb(109,121,133)" stroke-width="1" opacity="1" d="M 31.5 13 L 32.5 16 L 34 15.5 Q 32 19 30 14.5 L 31.5 13 Z " /><path fill="rgb(109,121,133)" stroke="rgb(109,121,133)" stroke-width="1" opacity="1" d="M 26.5 18 L 27.5 20 L 25 19.5 L 26.5 18 Z " /><path fill="rgb(109,121,133)" stroke="rgb(109,121,133)" stroke-width="1" opacity="1" d="M 30.5 20 L 31.5 22 L 29 21.5 L 30.5 20 Z " /><path fill="rgb(109,121,133)" stroke="rgb(109,121,133)" stroke-width="1" opacity="1" d="M 37.5 20 L 36.5 22 L 37.5 20 Z " /><path fill="rgb(109,121,133)" stroke="rgb(109,121,133)" stroke-width="1" opacity="1" d="M 29.5 23 L 33 23.5 L 29.5 24 L 29.5 23 Z " /><path fill="rgb(109,121,133)" stroke="rgb(109,121,133)" stroke-width="1" opacity="1" d="M 18.5 28 L 18 29.5 L 17.5 31 L 17 29.5 L 18.5 28 Z " /><path fill="rgb(109,121,133)" stroke="rgb(109,121,133)" stroke-width="1" opacity="1" d="M 21 29 Q 24 28 23 31 Q 20 32 21 29 Z " /><path fill="rgb(109,121,133)" stroke="rgb(109,121,133)" stroke-width="1" opacity="1" d="M 33.5 29 L 32.5 31 L 33.5 29 Z " /><path fill="rgb(109,121,133)" stroke="rgb(109,121,133)" stroke-width="1" opacity="1" d="M 50.5 29 L 51.5 31 L 49 30.5 L 50.5 29 Z " /><path fill="rgb(109,121,133)" stroke="rgb(109,121,133)" stroke-width="1" opacity="1" d="M 8.5 38 L 54 38.5 L 8.5 39 L 8.5 38 Z " /><path fill="rgb(242,244,245)" stroke="rgb(242,244,245)" stroke-width="1" opacity="1" d="M 27.5 6 L 31 6.5 L 25 9.5 L 23 15.5 L 25 20 L 29 21.5 L 26.5 22 L 24 21 Q 25 16.8 22 17.5 L 22 13.5 L 23 10.5 L 24.5 8 L 27.5 6 Z " /><path fill="rgb(242,244,245)" stroke="rgb(242,244,245)" stroke-width="1" opacity="1" d="M 33.5 6 L 37 8.5 L 35.5 9 L 33 8 L 33.5 6 Z " /><path fill="rgb(242,244,245)" stroke="rgb(242,244,245)" stroke-width="1" opacity="1" d="M 28.5 9 Q 34.3 8.2 36 11.5 Q 36.6 16.9 35 19 L 28.5 20 Q 24 19 25 12.5 L 28.5 9 Z M 31 10 L 27 18 Q 30 19 29 16 L 32 16 L 34 18 Q 34 12 31 10 Z " /><path fill="rgb(242,244,245)" stroke="rgb(242,244,245)" stroke-width="1" opacity="1" d="M 37.5 10 L 40 14.5 L 36.5 21 Q 35.1 23.6 30.5 23 L 30.5 22 Q 35.3 21.8 37 18.5 L 38 12.5 L 37.5 10 Z " /><path fill="rgb(242,244,245)" stroke="rgb(242,244,245)" stroke-width="1" opacity="1" d="M 9.5 27 L 11 29.5 L 8 29.5 L 9.5 27 Z " /><path fill="rgb(242,244,245)" stroke="rgb(242,244,245)" stroke-width="1" opacity="1" d="M 14.5 27 L 15 29.5 L 14 29.5 L 14.5 27 Z " /><path fill="rgb(242,244,245)" stroke="rgb(242,244,245)" stroke-width="1" opacity="1" d="M 16.5 27 L 17 29.5 L 16 29.5 L 16.5 27 Z " /><path fill="rgb(242,244,245)" stroke="rgb(242,244,245)" stroke-width="1" opacity="1" d="M 19.5 27 L 21 29.5 L 18.5 30 L 19 28.5 L 19.5 27 Z " /><path fill="rgb(242,244,245)" stroke="rgb(242,244,245)" stroke-width="1" opacity="1" d="M 26.5 27 L 27 29.5 L 26 29.5 L 26.5 27 Z " /><path fill="rgb(242,244,245)" stroke="rgb(242,244,245)" stroke-width="1" opacity="1" d="M 36.5 27 L 39 28.5 L 37.5 31 L 35 29.5 L 36.5 27 Z M 36 28 Q 35 31 38 30 Q 39 27 36 28 Z " /><path fill="rgb(242,244,245)" stroke="rgb(242,244,245)" stroke-width="1" opacity="1" d="M 40.5 27 L 41.5 29 L 43 28.5 L 42.5 31 L 40 30 L 40.5 27 Z " /><path fill="rgb(242,244,245)" stroke="rgb(242,244,245)" stroke-width="1" opacity="1" d="M 44.5 27 Q 47.1 26.2 46 29.5 L 45 29.5 L 44.5 27 Z " /><path fill="rgb(242,244,245)" stroke="rgb(242,244,245)" stroke-width="1" opacity="1" d="M 48.5 27 L 50 29.5 L 47.5 30 L 48 28.5 L 48.5 27 Z " /><path fill="rgb(242,244,245)" stroke="rgb(242,244,245)" stroke-width="1" opacity="1" d="M 51.5 27 L 53 29.5 L 51 28.5 L 51.5 27 Z " /><path fill="rgb(242,244,245)" stroke="rgb(242,244,245)" stroke-width="1" opacity="1" d="M 23.5 28 L 24.5 30 L 23.5 28 Z " /><path fill="rgb(242,244,245)" stroke="rgb(242,244,245)" stroke-width="1" opacity="1" d="M 33.5 28 L 32.5 30 L 31 29.5 L 33.5 28 Z " /><path fill="rgb(8,8,9)" stroke="rgb(8,8,9)" stroke-width="1" opacity="1" d="M 56.5 9 L 57 24.5 L 56 24.5 L 56.5 9 Z " /><path fill="rgb(8,8,9)" stroke="rgb(8,8,9)" stroke-width="1" opacity="1" d="M 19.5 26 L 17.5 29 L 17 27 L 19.5 26 Z " /><path fill="rgb(8,8,9)" stroke="rgb(8,8,9)" stroke-width="1" opacity="1" d="M 38.5 32 L 38 33.5 L 37.5 35 L 37 33.5 L 38.5 32 Z " /><path fill="rgb(0,0,1)" stroke="rgb(0,0,1)" stroke-width="1" opacity="1" d="M 43.5 31 L 44.5 33 L 43.5 31 Z " /><path fill="rgb(0,0,0)" stroke="rgb(0,0,0)" stroke-width="1" opacity="1" d="M 7.5 3 L 54.5 3 L 57 4 L 58 6.5 L 58 33.5 L 55.5 37 L 53.5 38 L 8.5 38 L 5 35.5 L 4 33.5 L 4 7.5 L 7.5 3 Z M 10 4 L 6 8 L 6 25 L 57 25 L 57 9 L 56 7 L 53 4 L 10 4 Z M 10 26 L 7 30 L 8 32 L 9 31 L 30 31 L 29 29 L 30 26 L 26 27 L 24 26 L 22 29 L 21 28 Q 20 25 19 27 L 15 26 L 13 29 L 10 26 Z M 33 26 Q 30 27 31 31 L 34 30 L 43 31 L 45 31 L 47 32 L 48 31 L 55 31 Q 56 28 53 29 L 53 26 Q 50 25 51 28 L 49 26 L 48 27 L 44 26 L 42 26 L 40 27 L 38 26 L 36 27 L 33 26 Z M 28 32 L 27 33 L 8 33 L 9 35 L 20 35 L 22 35 L 35 35 L 36 36 L 40 35 L 42 35 L 52 35 L 52 33 L 46 33 L 45 32 L 40 33 L 38 33 L 29 33 L 28 32 Z " /><path fill="rgb(32,31,42)" stroke="rgb(32,31,42)" stroke-width="1" opacity="1" d="M 0 0 L 5 0.5 L 1 4.5 L 1 36.5 L 5.5 41 L 56.5 41 L 61 36.5 L 61 4.5 L 58.5 1 L 57 0.5 L 62 0 L 62 42 L 0 42 L 0 0 Z " /><path fill="rgb(32,31,42)" stroke="rgb(32,31,42)" stroke-width="1" opacity="1" d="M 12.5 33 L 13.5 35 L 12.5 33 Z " /><path fill="rgb(32,31,42)" stroke="rgb(32,31,42)" stroke-width="1" opacity="1" d="M 28.5 33 L 27.5 35 L 28.5 33 Z " /><path fill="rgb(32,31,42)" stroke="rgb(32,31,42)" stroke-width="1" opacity="1" d="M 43 33 L 45 33.5 L 43 34.5 L 43 33 Z " /><path fill="rgb(250,110,65)" stroke="rgb(250,110,65)" stroke-width="1" opacity="1" d="M 7.5 1 L 55 1.5 L 7.5 2 L 7.5 1 Z " /><path fill="rgb(250,110,65)" stroke="rgb(250,110,65)" stroke-width="1" opacity="1" d="M 5.5 2 L 4 4.5 L 3.5 6 L 3 4.5 L 5.5 2 Z " /><path fill="rgb(250,110,65)" stroke="rgb(250,110,65)" stroke-width="1" opacity="1" d="M 56.5 2 L 58.5 5 L 56.5 2 Z " /><path fill="rgb(250,110,65)" stroke="rgb(250,110,65)" stroke-width="1" opacity="1" d="M 59.5 6 L 60 34.5 L 59 34.5 L 59.5 6 Z " /><path fill="rgb(250,110,65)" stroke="rgb(250,110,65)" stroke-width="1" opacity="1" d="M 2.5 7 L 3 33.5 L 2 33.5 L 2.5 7 Z " /><path fill="rgb(250,110,65)" stroke="rgb(250,110,65)" stroke-width="1" opacity="1" d="M 58.5 36 L 57.5 38 L 58.5 36 Z " /><path fill="rgb(250,110,65)" stroke="rgb(250,110,65)" stroke-width="1" opacity="1" d="M 8.5 39 L 55 39.5 L 8.5 40 L 8.5 39 Z " /><path fill="rgb(202,31,10)" stroke="rgb(202,31,10)" stroke-width="1" opacity="1" d="M 7.5 0 L 54.5 0 L 60 3.5 L 61 6.5 L 61 34.5 L 59 39 L 55.5 40 L 56.5 38 L 59 36.5 L 60 34.5 L 60 6.5 L 56.5 2 L 54.5 1 L 7.5 1 L 3 4.5 L 2 7.5 L 2 33.5 L 6.5 39 L 8 39.5 L 5.5 40 L 1 33.5 L 1 7.5 L 3 2 L 7.5 0 Z " /><path fill="rgb(159,54,29)" stroke="rgb(159,54,29)" stroke-width="1" opacity="1" d="M 5.5 0 L 7 0.5 L 4.5 2 L 5.5 0 Z " /><path fill="rgb(159,54,29)" stroke="rgb(159,54,29)" stroke-width="1" opacity="1" d="M 2.5 37 L 4.5 40 L 2.5 37 Z " /><path fill="rgb(159,54,29)" stroke="rgb(159,54,29)" stroke-width="1" opacity="1" d="M 6.5 40 L 56 40.5 L 6.5 41 L 6.5 40 Z " /></svg>