<?xml version="1.0" standalone="no"?>
<!DOCTYPE svg PUBLIC "-//W3C//DTD SVG 20010904//EN"
 "http://www.w3.org/TR/2001/REC-SVG-20010904/DTD/svg10.dtd">
<svg version="1.0" xmlns="http://www.w3.org/2000/svg"
 width="200.000000pt" height="80.000000pt" viewBox="0 0 200.000000 80.000000"
 preserveAspectRatio="xMidYMid meet">

<g transform="translate(0.000000,80.000000) scale(0.100000,-0.100000)"
fill="#000000" stroke="none">
<path d="M182 655 c-28 -12 -52 -47 -52 -75 0 -4 31 5 69 20 89 37 111 48 111
60 0 15 -91 11 -128 -5z"/>
<path d="M310 630 c-21 -16 -22 -20 -7 -20 10 0 39 -11 65 -24 27 -13 66 -28
88 -31 l39 -7 -35 37 c-33 36 -85 65 -112 65 -7 0 -24 -9 -38 -20z"/>
<path d="M88 601 c-13 -11 -35 -40 -48 -65 -24 -44 -24 -45 -6 -83 l18 -38 12
40 c7 22 20 52 28 65 15 24 34 100 25 100 -2 0 -15 -9 -29 -19z"/>
<path d="M834 580 c-25 -63 -124 -343 -124 -351 0 -28 34 1 49 41 l17 45 83 0
83 0 18 -45 c10 -26 25 -47 35 -48 23 -5 20 6 -55 211 -50 134 -64 163 -80
163 -11 0 -22 -7 -26 -16z m60 -122 c16 -46 31 -89 34 -95 3 -10 -15 -13 -68
-13 -53 0 -71 3 -68 13 3 6 17 49 33 95 16 45 31 82 34 82 4 0 19 -37 35 -82z"/>
<path d="M1161 577 c-5 -12 -20 -53 -34 -92 -14 -38 -41 -114 -61 -167 -32
-89 -33 -98 -17 -98 13 0 25 16 39 50 l21 51 82 -3 82 -3 15 -43 c13 -40 35
-62 49 -49 3 3 -6 36 -20 74 -14 37 -43 117 -65 177 -30 82 -45 112 -61 118
-17 6 -23 3 -30 -15z m69 -143 l29 -84 -71 0 c-52 0 -69 3 -66 13 2 6 17 51
33 99 33 99 32 99 75 -28z"/>
<path d="M1495 586 c-37 -17 -80 -62 -94 -99 -19 -50 -13 -138 12 -182 45 -79
156 -109 236 -64 45 25 68 56 52 72 -8 8 -20 2 -43 -20 -38 -37 -74 -48 -122
-39 -106 20 -150 175 -74 262 56 63 150 67 197 8 20 -26 36 -30 46 -13 10 14
-33 59 -72 75 -41 17 -99 17 -138 0z"/>
<path d="M1750 578 c0 -13 11 -18 53 -20 l52 -3 3 -167 c2 -140 5 -168 17
-168 13 0 15 27 15 170 l0 170 50 0 c37 0 50 4 50 14 0 12 -24 15 -120 18
-107 3 -120 1 -120 -14z"/>
<path d="M185 557 c-125 -71 -122 -242 6 -307 114 -59 249 25 249 155 0 133
-141 217 -255 152z m142 -119 c17 -46 34 -91 38 -100 6 -14 2 -18 -15 -18 -13
0 -24 8 -27 20 -4 16 -14 20 -50 20 -36 0 -46 -4 -50 -20 -3 -13 -14 -20 -29
-20 l-24 0 21 53 c12 28 27 69 35 90 19 53 22 57 47 57 19 0 28 -13 54 -82z"/>
<path d="M260 437 c-15 -31 -10 -40 18 -35 19 3 19 6 7 33 l-12 30 -13 -28z"/>
<path d="M462 478 c11 -29 30 -73 41 -97 l22 -44 7 34 c15 76 -22 159 -72 159
-17 0 -17 -3 2 -52z"/>
<path d="M0 407 c0 -79 38 -137 90 -137 9 0 -21 82 -51 140 -26 50 -39 49 -39
-3z"/>
<path d="M470 353 c0 -9 -11 -35 -24 -57 -13 -23 -28 -59 -32 -81 l-7 -39 29
23 c35 27 74 89 74 116 -1 20 -22 55 -34 55 -3 0 -6 -7 -6 -17z"/>
<path d="M50 252 c0 -15 65 -71 100 -86 30 -12 38 -12 63 0 26 14 29 34 6 34
-6 0 -34 11 -62 24 -60 28 -107 40 -107 28z"/>
<path d="M370 220 c-19 -11 -43 -19 -53 -20 -10 0 -39 -12 -65 -27 l-47 -28
57 -3 c78 -4 121 15 135 62 6 20 10 36 10 36 -1 -1 -18 -9 -37 -20z"/>
</g>
</svg>
